<svg width="1909" height="299" viewBox="0 0 1909 299" fill="none" xmlns="http://www.w3.org/2000/svg">
<g clip-path="url(#clip0_3_2)">
<path d="M1439.1 143.96V149.8C1437.56 150.39 1435.85 150.68 1433.97 150.68C1429.66 150.68 1427.45 148.44 1427.33 143.96C1423.02 148.8 1417.51 151.22 1410.78 151.22C1406.3 151.22 1402.74 150.07 1400.12 147.77C1397.49 145.47 1396.18 142.31 1396.18 138.3C1396.18 130.16 1401.58 125.41 1412.38 124.05C1413.09 123.93 1414.12 123.81 1415.48 123.7C1420.61 123.11 1423.77 122.43 1424.95 121.66C1426.31 120.72 1426.99 119.09 1426.99 116.79C1426.99 111.78 1423.54 109.27 1416.64 109.27C1413.1 109.27 1410.41 109.99 1408.59 111.44C1406.76 112.89 1405.67 115.26 1405.32 118.56H1397.98C1398.1 113.66 1399.84 109.86 1403.2 107.14C1406.56 104.42 1411.19 103.07 1417.09 103.07C1423.52 103.07 1428.3 104.55 1431.43 107.5C1432.43 108.44 1433.17 109.68 1433.64 111.22C1434.11 112.75 1434.38 114.01 1434.44 114.98C1434.5 115.95 1434.53 117.41 1434.53 119.36C1434.53 121.6 1434.47 124.99 1434.35 129.54C1434.23 134.08 1434.17 137.48 1434.17 139.72C1434.17 141.37 1434.39 142.54 1434.83 143.22C1435.27 143.9 1436.08 144.24 1437.26 144.24C1437.73 144.24 1438.35 144.15 1439.12 143.98L1439.1 143.96ZM1426.97 126.26C1426.44 126.67 1425.88 127.03 1425.29 127.32C1424.7 127.62 1423.95 127.85 1423.03 128.03C1422.11 128.21 1421.49 128.34 1421.17 128.43C1420.84 128.52 1420.06 128.64 1418.82 128.78C1417.58 128.93 1416.93 129 1416.87 129C1415.04 129.24 1413.85 129.4 1413.29 129.49C1412.73 129.58 1411.67 129.83 1410.1 130.24C1408.54 130.65 1407.43 131.12 1406.78 131.66C1406.13 132.19 1405.5 132.97 1404.88 134C1404.26 135.03 1403.95 136.26 1403.95 137.67C1403.95 140.03 1404.76 141.89 1406.38 143.25C1408 144.61 1410.23 145.29 1413.06 145.29C1416.66 145.29 1419.87 144.23 1422.71 142.1C1425.54 139.98 1426.96 137.47 1426.96 134.58V126.26H1426.97Z" fill="white"/>
<path d="M1496.18 86.96V149.97H1489.1V143.24C1486.21 148.55 1481.19 151.2 1474.06 151.2C1467.57 151.2 1462.42 149.03 1458.62 144.7C1454.81 140.36 1452.91 134.48 1452.91 127.04C1452.91 120.14 1454.69 114.4 1458.26 109.83C1461.83 105.26 1466.98 102.97 1473.7 102.97C1480.42 102.97 1485.23 105.45 1488.66 110.4V86.95H1496.18V86.96ZM1474.67 109.44C1470.36 109.44 1466.96 111 1464.45 114.13C1461.94 117.26 1460.69 121.51 1460.69 126.87C1460.69 132.23 1461.97 136.83 1464.54 140.1C1467.11 143.37 1470.54 145.01 1474.85 145.01C1479.16 145.01 1482.64 143.43 1485.12 140.28C1487.6 137.12 1488.84 132.74 1488.84 127.14C1488.84 122.13 1487.67 117.92 1485.34 114.53C1483.01 111.14 1479.46 109.44 1474.68 109.44H1474.67Z" fill="white"/>
<path d="M1511.93 104.31H1520.34L1533.26 142.63L1545.83 104.31H1553.71L1536.98 149.98H1528.93L1511.94 104.31H1511.93Z" fill="white"/>
<path d="M1608.48 135.55C1606.18 146.17 1599.54 151.48 1588.57 151.48C1581.84 151.48 1576.58 149.39 1572.77 145.2C1568.96 141.01 1567.06 135.2 1567.06 127.77C1567.06 120.34 1569.02 114.42 1572.94 109.85C1576.86 105.28 1581.98 102.99 1588.29 102.99C1595.31 102.99 1600.52 105.37 1603.91 110.11C1607.3 114.86 1609 120.86 1609 128.12V129.18H1574.66L1574.57 129.71C1574.57 134.55 1575.84 138.35 1578.38 141.13C1580.92 143.9 1584.4 145.29 1588.82 145.29C1592.12 145.29 1594.73 144.52 1596.65 142.99C1598.57 141.46 1600.06 138.98 1601.12 135.56H1608.47L1608.48 135.55ZM1601.22 123.07C1600.87 118.7 1599.54 115.3 1597.24 112.85C1594.94 110.4 1591.9 109.18 1588.12 109.18C1584.34 109.18 1581.42 110.42 1579 112.9C1576.58 115.38 1575.14 118.77 1574.66 123.08H1601.21L1601.22 123.07Z" fill="white"/>
<path d="M1649.63 103.25V111.04C1649.1 110.98 1648.45 110.95 1647.68 110.95C1645.26 110.95 1643.17 111.32 1641.4 112.06C1639.63 112.8 1638.23 113.76 1637.2 114.94C1636.17 116.12 1635.33 117.59 1634.68 119.36C1634.03 121.13 1633.6 122.9 1633.4 124.67C1633.19 126.44 1633.09 128.45 1633.09 130.69V149.98H1625.57V104.31H1632.74V114.13C1635.75 106.87 1641.38 103.25 1649.64 103.25H1649.63Z" fill="white"/>
<path d="M1683.7 104.31V110.5H1674.58V137.14C1674.58 138.61 1674.59 139.59 1674.62 140.06C1674.65 140.53 1674.81 141.17 1675.11 141.96C1675.4 142.76 1675.91 143.27 1676.61 143.51C1677.32 143.75 1678.32 143.86 1679.62 143.86C1680.74 143.86 1682.1 143.77 1683.69 143.6V150.06C1681.57 150.3 1679.65 150.41 1677.94 150.41C1675.82 150.41 1674.05 150.17 1672.63 149.7C1671.21 149.23 1670.14 148.7 1669.4 148.11C1668.66 147.52 1668.12 146.47 1667.76 144.97C1667.41 143.47 1667.2 142.2 1667.14 141.16C1667.08 140.13 1667.05 138.4 1667.05 135.98V110.49H1659.35V104.3H1667.05V90.76H1674.57V104.3H1683.69L1683.7 104.31Z" fill="white"/>
<path d="M1708.83 86.96V96.16H1701.22V86.96H1708.83ZM1708.83 104.31V149.98H1701.22V104.31H1708.83Z" fill="white"/>
<path d="M1763.26 117.58H1755.74C1755.27 112.04 1751.55 109.26 1744.59 109.26C1741.7 109.26 1739.43 109.82 1737.78 110.94C1736.13 112.06 1735.3 113.56 1735.3 115.45C1735.3 115.98 1735.36 116.5 1735.48 117C1735.6 117.5 1735.82 117.94 1736.14 118.33C1736.46 118.71 1736.76 119.05 1737.03 119.35C1737.3 119.65 1737.74 119.93 1738.36 120.19C1738.98 120.46 1739.45 120.68 1739.78 120.85C1740.1 121.03 1740.69 121.22 1741.55 121.43C1742.4 121.64 1743.01 121.78 1743.36 121.87C1743.71 121.96 1744.41 122.12 1745.44 122.36C1746.47 122.6 1747.14 122.74 1747.43 122.8C1749.61 123.27 1751.25 123.66 1752.34 123.95C1753.43 124.25 1754.94 124.79 1756.85 125.59C1758.77 126.39 1760.23 127.21 1761.23 128.07C1762.23 128.93 1763.13 130.11 1763.93 131.61C1764.73 133.11 1765.12 134.81 1765.12 136.7C1765.12 141.13 1763.39 144.68 1759.94 147.36C1756.49 150.04 1751.9 151.39 1746.18 151.39C1739.99 151.39 1735.22 150.03 1731.89 147.32C1728.56 144.61 1726.77 140.68 1726.54 135.55H1733.97C1734.38 141.98 1738.51 145.2 1746.36 145.2C1749.72 145.2 1752.42 144.51 1754.46 143.12C1756.5 141.74 1757.51 139.89 1757.51 137.59C1757.51 136.06 1756.98 134.79 1755.92 133.79C1754.86 132.79 1753.68 132.06 1752.38 131.62C1751.08 131.18 1749.22 130.66 1746.8 130.07C1746.45 130.01 1746.18 129.95 1746 129.89C1745.47 129.77 1744.33 129.52 1742.59 129.14C1740.85 128.76 1739.59 128.45 1738.83 128.21C1738.06 127.98 1736.96 127.61 1735.51 127.1C1734.06 126.6 1732.99 126.07 1732.28 125.51C1731.57 124.95 1730.79 124.24 1729.93 123.39C1729.07 122.53 1728.47 121.53 1728.12 120.38C1727.77 119.23 1727.59 117.92 1727.59 116.44C1727.59 112.31 1729.17 109.04 1732.32 106.62C1735.48 104.2 1739.71 102.99 1745.02 102.99C1750.33 102.99 1754.77 104.26 1758.16 106.79C1761.55 109.33 1763.25 112.93 1763.25 117.59L1763.26 117.58Z" fill="white"/>
<path d="M1790.42 86.96V96.16H1782.81V86.96H1790.42ZM1790.42 104.31V149.98H1782.81V104.31H1790.42Z" fill="white"/>
<path d="M1818.03 104.31V111.39C1821.81 105.85 1827 103.07 1833.61 103.07C1838.98 103.07 1842.86 104.47 1845.25 107.27C1847.64 110.07 1848.83 114.19 1848.83 119.62V149.98H1841.31V123.08C1841.31 120.84 1841.23 119.08 1841.09 117.81C1840.94 116.54 1840.57 115.19 1839.98 113.74C1839.39 112.29 1838.39 111.25 1836.97 110.6C1835.55 109.95 1833.72 109.63 1831.48 109.63C1822.81 109.63 1818.47 115.12 1818.47 126.09V149.98H1810.95V104.31H1818.03Z" fill="white"/>
<path d="M1908.57 104.31V145.02C1908.57 148.97 1908.36 152.03 1907.95 154.18C1907.54 156.33 1906.77 158.35 1905.65 160.24C1902.29 165.78 1896.27 168.56 1887.6 168.56C1882.47 168.56 1878.13 167.51 1874.59 165.42C1871.05 163.33 1868.98 159.89 1868.4 155.11H1876.1C1876.98 160.18 1880.91 162.72 1887.87 162.72C1892.53 162.72 1895.91 161.54 1898 159.18C1900.09 156.82 1901.2 153.01 1901.32 147.76L1901.41 142.18C1898.52 147.73 1893.68 150.5 1886.9 150.5C1880.76 150.5 1875.88 148.41 1872.25 144.22C1868.62 140.03 1866.81 134.4 1866.81 127.32C1866.81 120.65 1868.61 114.95 1872.21 110.2C1875.81 105.45 1880.82 103.08 1887.25 103.08C1890.44 103.08 1893.28 103.76 1895.79 105.12C1898.3 106.48 1900.26 108.42 1901.67 110.96V104.32H1908.57V104.31ZM1887.59 109.62C1883.52 109.62 1880.32 111.2 1877.99 114.35C1875.66 117.51 1874.49 121.86 1874.49 127.4C1874.49 132.41 1875.7 136.44 1878.12 139.48C1880.54 142.52 1883.75 144.04 1887.77 144.04C1891.79 144.04 1895.25 142.45 1897.64 139.26C1900.03 136.07 1901.22 131.71 1901.22 126.16C1901.22 120.97 1900.03 116.91 1897.64 113.99C1895.25 111.07 1891.9 109.61 1887.6 109.61L1887.59 109.62Z" fill="white"/>
<path d="M1437.95 225.34C1437.3 230.83 1435.22 235.19 1431.71 238.44C1428.2 241.69 1423.64 243.31 1418.04 243.31C1411.14 243.31 1405.8 241.17 1402.02 236.89C1398.24 232.61 1396.36 226.9 1396.36 219.77C1396.36 212.16 1398.34 206.13 1402.29 201.67C1406.24 197.21 1411.58 194.99 1418.31 194.99C1423.91 194.99 1428.4 196.39 1431.76 199.19C1435.12 201.99 1437.1 205.99 1437.69 211.18H1429.9C1428.54 204.57 1424.71 201.27 1418.4 201.27C1414.03 201.27 1410.58 202.88 1408.05 206.09C1405.51 209.31 1404.24 213.66 1404.24 219.14C1404.24 224.62 1405.45 229.05 1407.87 232.24C1410.29 235.43 1413.62 237.02 1417.87 237.02C1421.29 237.02 1424.08 236.02 1426.23 234.01C1428.38 232 1429.75 229.11 1430.35 225.34H1437.96H1437.95Z" fill="white"/>
<path d="M1458.65 201.53C1462.66 197.16 1468.12 194.98 1475.02 194.98C1481.92 194.98 1487.29 197.07 1491.13 201.26C1494.96 205.45 1496.88 211.32 1496.88 218.87C1496.88 226.42 1494.96 232.62 1491.13 236.92C1487.29 241.23 1481.9 243.38 1474.93 243.38C1467.96 243.38 1462.51 241.26 1458.56 237.01C1454.61 232.76 1452.63 226.86 1452.63 219.31C1452.63 211.76 1454.63 205.89 1458.65 201.52V201.53ZM1485.33 206.09C1482.76 202.88 1479.27 201.27 1474.84 201.27C1470.41 201.27 1466.9 202.89 1464.31 206.14C1461.71 209.39 1460.42 213.72 1460.42 219.15C1460.42 224.58 1461.7 229.14 1464.27 232.29C1466.84 235.45 1470.42 237.02 1475.02 237.02C1479.62 237.02 1482.91 235.43 1485.42 232.24C1487.93 229.05 1489.18 224.66 1489.18 219.05C1489.18 213.44 1487.9 209.3 1485.33 206.09Z" fill="white"/>
<path d="M1521.75 196.31V202.95C1523.75 200.24 1525.91 198.26 1528.21 197.02C1530.51 195.78 1533.31 195.16 1536.62 195.16C1542.87 195.16 1547.09 197.79 1549.28 203.04C1553.23 197.73 1558.28 195.08 1564.41 195.08C1569.13 195.08 1572.71 196.39 1575.16 199.02C1577.61 201.65 1578.83 205.32 1578.83 210.04V241.99H1571.31V213.23C1571.31 209.45 1570.72 206.61 1569.54 204.69C1568.36 202.77 1565.91 201.81 1562.19 201.81C1554.4 201.81 1550.51 206.56 1550.51 216.06V241.99H1542.99V212.7C1542.99 209.22 1542.41 206.55 1541.26 204.69C1540.11 202.83 1537.88 201.9 1534.58 201.9C1529.92 201.9 1526.69 203.33 1524.89 206.19C1523.09 209.05 1522.19 212.93 1522.19 217.83V241.99H1514.67V196.32H1521.75V196.31Z" fill="white"/>
<path d="M1606.09 196.31V202.77C1609.39 197.52 1614.53 194.89 1621.49 194.89C1627.86 194.89 1632.92 197.04 1636.67 201.35C1640.42 205.66 1642.29 211.5 1642.29 218.87C1642.29 226.24 1640.45 232.13 1636.76 236.52C1633.07 240.92 1628.1 243.11 1621.85 243.11C1615.6 243.11 1610.2 240.6 1606.54 235.59V259.57H1599.02V196.29H1606.1L1606.09 196.31ZM1620.34 201.18C1615.97 201.18 1612.54 202.76 1610.03 205.92C1607.52 209.08 1606.27 213.43 1606.27 218.97C1606.27 224.51 1607.55 228.87 1610.12 232.02C1612.69 235.18 1616.18 236.76 1620.61 236.76C1625.04 236.76 1628.31 235.17 1630.79 231.98C1633.27 228.79 1634.51 224.46 1634.51 218.97C1634.51 213.48 1633.26 209.07 1630.75 205.92C1628.24 202.76 1624.78 201.18 1620.35 201.18H1620.34Z" fill="white"/>
<path d="M1700.78 235.96V241.8C1699.25 242.39 1697.53 242.68 1695.65 242.68C1691.34 242.68 1689.13 240.44 1689.01 235.96C1684.7 240.8 1679.19 243.22 1672.46 243.22C1667.98 243.22 1664.42 242.07 1661.8 239.77C1659.17 237.47 1657.86 234.31 1657.86 230.3C1657.86 222.16 1663.26 217.41 1674.06 216.05C1674.77 215.93 1675.8 215.81 1677.16 215.7C1682.29 215.11 1685.45 214.43 1686.63 213.66C1687.99 212.72 1688.67 211.09 1688.67 208.79C1688.67 203.78 1685.22 201.27 1678.32 201.27C1674.78 201.27 1672.09 201.99 1670.27 203.44C1668.44 204.89 1667.35 207.26 1667 210.56H1659.65C1659.77 205.66 1661.51 201.86 1664.87 199.14C1668.23 196.43 1672.86 195.07 1678.76 195.07C1685.19 195.07 1689.97 196.55 1693.1 199.5C1694.1 200.44 1694.84 201.68 1695.31 203.22C1695.78 204.75 1696.05 206.01 1696.11 206.98C1696.17 207.95 1696.2 209.41 1696.2 211.36C1696.2 213.6 1696.14 216.99 1696.02 221.54C1695.9 226.08 1695.84 229.48 1695.84 231.72C1695.84 233.37 1696.06 234.54 1696.5 235.22C1696.94 235.9 1697.75 236.24 1698.93 236.24C1699.4 236.24 1700.02 236.15 1700.79 235.98L1700.78 235.96ZM1688.65 218.26C1688.12 218.67 1687.56 219.03 1686.97 219.32C1686.38 219.62 1685.63 219.85 1684.71 220.03C1683.79 220.21 1683.17 220.34 1682.85 220.43C1682.52 220.52 1681.74 220.64 1680.5 220.78C1679.26 220.93 1678.61 221 1678.55 221C1676.72 221.24 1675.53 221.4 1674.97 221.49C1674.41 221.58 1673.35 221.83 1671.78 222.24C1670.22 222.65 1669.11 223.12 1668.46 223.66C1667.81 224.19 1667.18 224.97 1666.56 226C1665.94 227.03 1665.63 228.26 1665.63 229.67C1665.63 232.03 1666.44 233.89 1668.06 235.25C1669.68 236.61 1671.91 237.29 1674.74 237.29C1678.34 237.29 1681.55 236.23 1684.39 234.1C1687.22 231.98 1688.64 229.47 1688.64 226.58V218.26H1688.65Z" fill="white"/>
<path d="M1723.79 196.31V203.39C1727.56 197.85 1732.76 195.07 1739.37 195.07C1744.74 195.07 1748.62 196.47 1751.01 199.27C1753.4 202.07 1754.59 206.19 1754.59 211.62V241.98H1747.07V215.08C1747.07 212.84 1747 211.08 1746.85 209.81C1746.7 208.54 1746.33 207.19 1745.74 205.74C1745.15 204.29 1744.15 203.25 1742.73 202.6C1741.31 201.95 1739.48 201.63 1737.24 201.63C1728.57 201.63 1724.23 207.12 1724.23 218.09V241.98H1716.71V196.31H1723.79Z" fill="white"/>
<path d="M1812.55 196.31L1792.99 247.81C1792.22 249.87 1791.56 251.48 1791 252.63C1790.44 253.78 1789.64 255.05 1788.61 256.43C1787.58 257.82 1786.34 258.82 1784.89 259.44C1783.44 260.06 1781.75 260.37 1779.8 260.37C1778.32 260.37 1776.47 260.11 1774.22 259.57V252.84C1776.4 253.49 1778.03 253.81 1779.09 253.81C1781.57 253.81 1783.34 252.54 1784.4 250L1787.94 241.68L1769.8 196.28H1778.3L1791.84 232.65L1804.67 196.28H1812.55V196.31Z" fill="white"/>
<path d="M121.23 193.45L56.93 232.45L0 199.77L175 100.68V298.87L121.23 268.3V193.45Z" fill="#14FF5A"/>
<path d="M16.8701 86.75L175 0V66.94L61.1401 131.03L16.8701 86.75Z" fill="#14FF5A"/>
<path d="M286.33 133.92H252.07V107.21H286.33V86.8901C286.33 55.2501 304.62 38.1201 338.3 38.1201C346.14 38.1201 353.69 38.7001 359.78 40.7301V67.7301C352.81 65.9901 348.17 65.1201 341.49 65.1201C325.52 65.1201 317.68 72.3801 317.68 87.4701V107.21H359.78V133.92H317.68V255.85H286.33V133.92Z" fill="white"/>
<path d="M375.45 181.53C375.45 138.27 410 104.31 453.54 104.31C497.08 104.31 531.34 138.28 531.34 181.53C531.34 224.78 497.08 258.75 453.54 258.75C410 258.75 375.45 225.07 375.45 181.53ZM500.28 181.53C500.28 153.95 479.67 132.18 453.54 132.18C427.41 132.18 406.51 153.95 406.51 181.53C406.51 209.11 427.12 230.88 453.54 230.88C479.96 230.88 500.28 209.4 500.28 181.53Z" fill="white"/>
<path d="M565.6 107.21H597.24V125.79C606.53 111.85 620.47 103.73 637.88 103.73C644.56 104.02 648.91 104.6 652.98 106.63V134.79C647.46 132.47 641.37 131.31 634.98 131.31C618.43 131.31 604.79 140.6 597.24 157.15V255.86H565.6V107.21Z" fill="white"/>
<path d="M671.56 107.21H702.04L729.91 212.88L762.72 107.21H789.72L822.24 213.17L850.11 107.21H880.01L838.49 255.85H808.01L775.79 150.47L743.27 255.85H712.79L671.57 107.21H671.56Z" fill="white"/>
<path d="M897.71 213.17C897.71 185.01 920.64 167.88 958.1 167.88C972.04 167.88 985.39 170.78 997.58 175.72V161.2C997.58 141.17 985.68 131.01 962.74 131.01C949.1 131.01 935.16 134.78 916.58 143.49L904.97 119.68C927.61 108.94 947.07 104.29 967.1 104.29C1006.29 104.29 1028.65 123.45 1028.65 157.71V255.84H997.59V243.65C984.82 253.81 970.01 258.46 952.3 258.46C920.07 258.46 897.72 240.17 897.72 213.17H897.71ZM959.83 235.23C974.93 235.23 987.41 231.17 997.57 222.17V197.78C986.83 191.97 974.93 189.36 960.99 189.36C940.67 189.36 928.18 198.36 928.18 212.29C928.18 226.22 940.66 235.22 959.82 235.22L959.83 235.23Z" fill="white"/>
<path d="M1068.7 107.21H1100.34V125.79C1109.63 111.85 1123.57 103.73 1140.98 103.73C1147.66 104.02 1152.01 104.6 1156.08 106.63V134.79C1150.56 132.47 1144.47 131.31 1138.08 131.31C1121.53 131.31 1107.89 140.6 1100.34 157.15V255.86H1068.7V107.21Z" fill="white"/>
<path d="M1171.47 181.24C1171.47 138.56 1204.86 104.89 1247.53 104.89C1263.5 104.89 1278.59 109.83 1291.08 118.82V52.6301L1322.72 46.8201V255.85H1291.66V242.21C1279.18 252.66 1263.79 258.18 1246.95 258.18C1204.85 258.18 1171.47 224.5 1171.47 181.25V181.24ZM1291.07 213.75V149.01C1281.78 138.56 1267.26 132.17 1251.3 132.17C1223.72 132.17 1202.82 153.07 1202.82 181.23C1202.82 209.39 1224.01 230.58 1251.3 230.58C1267.56 230.58 1281.78 224.48 1291.07 213.74V213.75Z" fill="white"/>
</g>
<defs>
<clipPath id="clip0_3_2">
<rect width="1908.57" height="298.87" fill="white"/>
</clipPath>
</defs>
</svg>
